<svg xmlns="http://www.w3.org/2000/svg" viewBox="0 0 1200 340" width="1200" height="340" role="img"><rect x="0" y="0" width="1200" height="340" fill="#F4F1E9" />
<rect x="0" y="0" width="1200" height="8" fill="#0E0E10" />
<rect x="0" y="332" width="1200" height="8" fill="#0E0E10" />
<rect x="56" y="34" width="26" height="26" fill="#E6301E" />
<g id="pt">
<rect x="92" y="40" width="4" height="4" fill="#0E0E10"/>
<rect x="108" y="40" width="4" height="4" fill="#0E0E10"/>
<rect x="92" y="44" width="4" height="4" fill="#0E0E10"/>
<rect x="96" y="44" width="4" height="4" fill="#0E0E10"/>
<rect x="108" y="44" width="4" height="4" fill="#0E0E10"/>
<rect x="92" y="48" width="4" height="4" fill="#0E0E10"/>
<rect x="100" y="48" width="4" height="4" fill="#0E0E10"/>
<rect x="108" y="48" width="4" height="4" fill="#0E0E10"/>
<rect x="92" y="52" width="4" height="4" fill="#0E0E10"/>
<rect x="100" y="52" width="4" height="4" fill="#0E0E10"/>
<rect x="108" y="52" width="4" height="4" fill="#0E0E10"/>
<rect x="92" y="56" width="4" height="4" fill="#0E0E10"/>
<rect x="104" y="56" width="4" height="4" fill="#0E0E10"/>
<rect x="108" y="56" width="4" height="4" fill="#0E0E10"/>
<rect x="92" y="60" width="4" height="4" fill="#0E0E10"/>
<rect x="108" y="60" width="4" height="4" fill="#0E0E10"/>
<rect x="92" y="64" width="4" height="4" fill="#0E0E10"/>
<rect x="108" y="64" width="4" height="4" fill="#0E0E10"/>
<rect x="120" y="40" width="4" height="4" fill="#0E0E10"/>
<rect x="124" y="40" width="4" height="4" fill="#0E0E10"/>
<rect x="128" y="40" width="4" height="4" fill="#0E0E10"/>
<rect x="116" y="44" width="4" height="4" fill="#0E0E10"/>
<rect x="132" y="44" width="4" height="4" fill="#0E0E10"/>
<rect x="132" y="48" width="4" height="4" fill="#0E0E10"/>
<rect x="128" y="52" width="4" height="4" fill="#0E0E10"/>
<rect x="124" y="56" width="4" height="4" fill="#0E0E10"/>
<rect x="120" y="60" width="4" height="4" fill="#0E0E10"/>
<rect x="116" y="64" width="4" height="4" fill="#0E0E10"/>
<rect x="120" y="64" width="4" height="4" fill="#0E0E10"/>
<rect x="124" y="64" width="4" height="4" fill="#0E0E10"/>
<rect x="128" y="64" width="4" height="4" fill="#0E0E10"/>
<rect x="132" y="64" width="4" height="4" fill="#0E0E10"/>
<rect x="152" y="40" width="4" height="4" fill="#0E0E10"/>
<rect x="148" y="44" width="4" height="4" fill="#0E0E10"/>
<rect x="152" y="44" width="4" height="4" fill="#0E0E10"/>
<rect x="144" y="48" width="4" height="4" fill="#0E0E10"/>
<rect x="152" y="48" width="4" height="4" fill="#0E0E10"/>
<rect x="140" y="52" width="4" height="4" fill="#0E0E10"/>
<rect x="152" y="52" width="4" height="4" fill="#0E0E10"/>
<rect x="140" y="56" width="4" height="4" fill="#0E0E10"/>
<rect x="144" y="56" width="4" height="4" fill="#0E0E10"/>
<rect x="148" y="56" width="4" height="4" fill="#0E0E10"/>
<rect x="152" y="56" width="4" height="4" fill="#0E0E10"/>
<rect x="156" y="56" width="4" height="4" fill="#0E0E10"/>
<rect x="152" y="60" width="4" height="4" fill="#0E0E10"/>
<rect x="152" y="64" width="4" height="4" fill="#0E0E10"/>
</g>
<text x="56" y="100" font-family="Consolas, Menlo, Monaco, monospace" font-size="12" font-weight="400" fill="#0E0E10" text-anchor="start" letter-spacing="1.5px">GITHUB PROFILE — SPECIAL REPO README</text>
<g id="l1">
<rect x="58" y="116" width="9" height="9" fill="#E6301E"/>
<rect x="94" y="116" width="9" height="9" fill="#E6301E"/>
<rect x="58" y="125" width="9" height="9" fill="#E6301E"/>
<rect x="67" y="125" width="9" height="9" fill="#E6301E"/>
<rect x="94" y="125" width="9" height="9" fill="#E6301E"/>
<rect x="58" y="134" width="9" height="9" fill="#E6301E"/>
<rect x="76" y="134" width="9" height="9" fill="#E6301E"/>
<rect x="94" y="134" width="9" height="9" fill="#E6301E"/>
<rect x="58" y="143" width="9" height="9" fill="#E6301E"/>
<rect x="76" y="143" width="9" height="9" fill="#E6301E"/>
<rect x="94" y="143" width="9" height="9" fill="#E6301E"/>
<rect x="58" y="152" width="9" height="9" fill="#E6301E"/>
<rect x="85" y="152" width="9" height="9" fill="#E6301E"/>
<rect x="94" y="152" width="9" height="9" fill="#E6301E"/>
<rect x="58" y="161" width="9" height="9" fill="#E6301E"/>
<rect x="94" y="161" width="9" height="9" fill="#E6301E"/>
<rect x="58" y="170" width="9" height="9" fill="#E6301E"/>
<rect x="94" y="170" width="9" height="9" fill="#E6301E"/>
<rect x="112" y="116" width="9" height="9" fill="#E6301E"/>
<rect x="121" y="116" width="9" height="9" fill="#E6301E"/>
<rect x="130" y="116" width="9" height="9" fill="#E6301E"/>
<rect x="139" y="116" width="9" height="9" fill="#E6301E"/>
<rect x="148" y="116" width="9" height="9" fill="#E6301E"/>
<rect x="130" y="125" width="9" height="9" fill="#E6301E"/>
<rect x="130" y="134" width="9" height="9" fill="#E6301E"/>
<rect x="130" y="143" width="9" height="9" fill="#E6301E"/>
<rect x="130" y="152" width="9" height="9" fill="#E6301E"/>
<rect x="130" y="161" width="9" height="9" fill="#E6301E"/>
<rect x="112" y="170" width="9" height="9" fill="#E6301E"/>
<rect x="121" y="170" width="9" height="9" fill="#E6301E"/>
<rect x="130" y="170" width="9" height="9" fill="#E6301E"/>
<rect x="139" y="170" width="9" height="9" fill="#E6301E"/>
<rect x="148" y="170" width="9" height="9" fill="#E6301E"/>
<rect x="166" y="116" width="9" height="9" fill="#E6301E"/>
<rect x="175" y="116" width="9" height="9" fill="#E6301E"/>
<rect x="184" y="116" width="9" height="9" fill="#E6301E"/>
<rect x="193" y="116" width="9" height="9" fill="#E6301E"/>
<rect x="202" y="116" width="9" height="9" fill="#E6301E"/>
<rect x="184" y="125" width="9" height="9" fill="#E6301E"/>
<rect x="184" y="134" width="9" height="9" fill="#E6301E"/>
<rect x="184" y="143" width="9" height="9" fill="#E6301E"/>
<rect x="184" y="152" width="9" height="9" fill="#E6301E"/>
<rect x="184" y="161" width="9" height="9" fill="#E6301E"/>
<rect x="184" y="170" width="9" height="9" fill="#E6301E"/>
<rect x="220" y="116" width="9" height="9" fill="#E6301E"/>
<rect x="229" y="116" width="9" height="9" fill="#E6301E"/>
<rect x="238" y="116" width="9" height="9" fill="#E6301E"/>
<rect x="247" y="116" width="9" height="9" fill="#E6301E"/>
<rect x="256" y="116" width="9" height="9" fill="#E6301E"/>
<rect x="238" y="125" width="9" height="9" fill="#E6301E"/>
<rect x="238" y="134" width="9" height="9" fill="#E6301E"/>
<rect x="238" y="143" width="9" height="9" fill="#E6301E"/>
<rect x="238" y="152" width="9" height="9" fill="#E6301E"/>
<rect x="238" y="161" width="9" height="9" fill="#E6301E"/>
<rect x="220" y="170" width="9" height="9" fill="#E6301E"/>
<rect x="229" y="170" width="9" height="9" fill="#E6301E"/>
<rect x="238" y="170" width="9" height="9" fill="#E6301E"/>
<rect x="247" y="170" width="9" height="9" fill="#E6301E"/>
<rect x="256" y="170" width="9" height="9" fill="#E6301E"/>
<rect x="274" y="116" width="9" height="9" fill="#E6301E"/>
<rect x="310" y="116" width="9" height="9" fill="#E6301E"/>
<rect x="274" y="125" width="9" height="9" fill="#E6301E"/>
<rect x="283" y="125" width="9" height="9" fill="#E6301E"/>
<rect x="310" y="125" width="9" height="9" fill="#E6301E"/>
<rect x="274" y="134" width="9" height="9" fill="#E6301E"/>
<rect x="292" y="134" width="9" height="9" fill="#E6301E"/>
<rect x="310" y="134" width="9" height="9" fill="#E6301E"/>
<rect x="274" y="143" width="9" height="9" fill="#E6301E"/>
<rect x="292" y="143" width="9" height="9" fill="#E6301E"/>
<rect x="310" y="143" width="9" height="9" fill="#E6301E"/>
<rect x="274" y="152" width="9" height="9" fill="#E6301E"/>
<rect x="301" y="152" width="9" height="9" fill="#E6301E"/>
<rect x="310" y="152" width="9" height="9" fill="#E6301E"/>
<rect x="274" y="161" width="9" height="9" fill="#E6301E"/>
<rect x="310" y="161" width="9" height="9" fill="#E6301E"/>
<rect x="274" y="170" width="9" height="9" fill="#E6301E"/>
<rect x="310" y="170" width="9" height="9" fill="#E6301E"/>
</g>
<g id="l2">
<rect x="58" y="187" width="9" height="9" fill="#0E0E10"/>
<rect x="94" y="187" width="9" height="9" fill="#0E0E10"/>
<rect x="58" y="196" width="9" height="9" fill="#0E0E10"/>
<rect x="94" y="196" width="9" height="9" fill="#0E0E10"/>
<rect x="58" y="205" width="9" height="9" fill="#0E0E10"/>
<rect x="94" y="205" width="9" height="9" fill="#0E0E10"/>
<rect x="58" y="214" width="9" height="9" fill="#0E0E10"/>
<rect x="94" y="214" width="9" height="9" fill="#0E0E10"/>
<rect x="58" y="223" width="9" height="9" fill="#0E0E10"/>
<rect x="94" y="223" width="9" height="9" fill="#0E0E10"/>
<rect x="67" y="232" width="9" height="9" fill="#0E0E10"/>
<rect x="85" y="232" width="9" height="9" fill="#0E0E10"/>
<rect x="76" y="241" width="9" height="9" fill="#0E0E10"/>
<rect x="112" y="187" width="9" height="9" fill="#0E0E10"/>
<rect x="121" y="187" width="9" height="9" fill="#0E0E10"/>
<rect x="130" y="187" width="9" height="9" fill="#0E0E10"/>
<rect x="139" y="187" width="9" height="9" fill="#0E0E10"/>
<rect x="148" y="187" width="9" height="9" fill="#0E0E10"/>
<rect x="130" y="196" width="9" height="9" fill="#0E0E10"/>
<rect x="130" y="205" width="9" height="9" fill="#0E0E10"/>
<rect x="130" y="214" width="9" height="9" fill="#0E0E10"/>
<rect x="130" y="223" width="9" height="9" fill="#0E0E10"/>
<rect x="130" y="232" width="9" height="9" fill="#0E0E10"/>
<rect x="112" y="241" width="9" height="9" fill="#0E0E10"/>
<rect x="121" y="241" width="9" height="9" fill="#0E0E10"/>
<rect x="130" y="241" width="9" height="9" fill="#0E0E10"/>
<rect x="139" y="241" width="9" height="9" fill="#0E0E10"/>
<rect x="148" y="241" width="9" height="9" fill="#0E0E10"/>
<rect x="166" y="187" width="9" height="9" fill="#0E0E10"/>
<rect x="202" y="187" width="9" height="9" fill="#0E0E10"/>
<rect x="166" y="196" width="9" height="9" fill="#0E0E10"/>
<rect x="193" y="196" width="9" height="9" fill="#0E0E10"/>
<rect x="166" y="205" width="9" height="9" fill="#0E0E10"/>
<rect x="184" y="205" width="9" height="9" fill="#0E0E10"/>
<rect x="166" y="214" width="9" height="9" fill="#0E0E10"/>
<rect x="175" y="214" width="9" height="9" fill="#0E0E10"/>
<rect x="166" y="223" width="9" height="9" fill="#0E0E10"/>
<rect x="184" y="223" width="9" height="9" fill="#0E0E10"/>
<rect x="166" y="232" width="9" height="9" fill="#0E0E10"/>
<rect x="193" y="232" width="9" height="9" fill="#0E0E10"/>
<rect x="166" y="241" width="9" height="9" fill="#0E0E10"/>
<rect x="202" y="241" width="9" height="9" fill="#0E0E10"/>
<rect x="229" y="187" width="9" height="9" fill="#0E0E10"/>
<rect x="238" y="187" width="9" height="9" fill="#0E0E10"/>
<rect x="247" y="187" width="9" height="9" fill="#0E0E10"/>
<rect x="220" y="196" width="9" height="9" fill="#0E0E10"/>
<rect x="256" y="196" width="9" height="9" fill="#0E0E10"/>
<rect x="220" y="205" width="9" height="9" fill="#0E0E10"/>
<rect x="256" y="205" width="9" height="9" fill="#0E0E10"/>
<rect x="220" y="214" width="9" height="9" fill="#0E0E10"/>
<rect x="229" y="214" width="9" height="9" fill="#0E0E10"/>
<rect x="238" y="214" width="9" height="9" fill="#0E0E10"/>
<rect x="247" y="214" width="9" height="9" fill="#0E0E10"/>
<rect x="256" y="214" width="9" height="9" fill="#0E0E10"/>
<rect x="220" y="223" width="9" height="9" fill="#0E0E10"/>
<rect x="256" y="223" width="9" height="9" fill="#0E0E10"/>
<rect x="220" y="232" width="9" height="9" fill="#0E0E10"/>
<rect x="256" y="232" width="9" height="9" fill="#0E0E10"/>
<rect x="220" y="241" width="9" height="9" fill="#0E0E10"/>
<rect x="256" y="241" width="9" height="9" fill="#0E0E10"/>
<rect x="283" y="187" width="9" height="9" fill="#0E0E10"/>
<rect x="292" y="187" width="9" height="9" fill="#0E0E10"/>
<rect x="301" y="187" width="9" height="9" fill="#0E0E10"/>
<rect x="274" y="196" width="9" height="9" fill="#0E0E10"/>
<rect x="310" y="196" width="9" height="9" fill="#0E0E10"/>
<rect x="274" y="205" width="9" height="9" fill="#0E0E10"/>
<rect x="310" y="205" width="9" height="9" fill="#0E0E10"/>
<rect x="274" y="214" width="9" height="9" fill="#0E0E10"/>
<rect x="283" y="214" width="9" height="9" fill="#0E0E10"/>
<rect x="292" y="214" width="9" height="9" fill="#0E0E10"/>
<rect x="301" y="214" width="9" height="9" fill="#0E0E10"/>
<rect x="310" y="214" width="9" height="9" fill="#0E0E10"/>
<rect x="274" y="223" width="9" height="9" fill="#0E0E10"/>
<rect x="310" y="223" width="9" height="9" fill="#0E0E10"/>
<rect x="274" y="232" width="9" height="9" fill="#0E0E10"/>
<rect x="310" y="232" width="9" height="9" fill="#0E0E10"/>
<rect x="274" y="241" width="9" height="9" fill="#0E0E10"/>
<rect x="310" y="241" width="9" height="9" fill="#0E0E10"/>
<rect x="337" y="187" width="9" height="9" fill="#0E0E10"/>
<rect x="346" y="187" width="9" height="9" fill="#0E0E10"/>
<rect x="355" y="187" width="9" height="9" fill="#0E0E10"/>
<rect x="364" y="187" width="9" height="9" fill="#0E0E10"/>
<rect x="328" y="196" width="9" height="9" fill="#0E0E10"/>
<rect x="328" y="205" width="9" height="9" fill="#0E0E10"/>
<rect x="337" y="214" width="9" height="9" fill="#0E0E10"/>
<rect x="346" y="214" width="9" height="9" fill="#0E0E10"/>
<rect x="355" y="214" width="9" height="9" fill="#0E0E10"/>
<rect x="364" y="223" width="9" height="9" fill="#0E0E10"/>
<rect x="364" y="232" width="9" height="9" fill="#0E0E10"/>
<rect x="328" y="241" width="9" height="9" fill="#0E0E10"/>
<rect x="337" y="241" width="9" height="9" fill="#0E0E10"/>
<rect x="346" y="241" width="9" height="9" fill="#0E0E10"/>
<rect x="355" y="241" width="9" height="9" fill="#0E0E10"/>
</g>
<rect x="800" y="40" width="344" height="216" fill="#F4F1E9" />
<rect x="800" y="40" width="344" height="216" fill="none" stroke="#0E0E10" stroke-width="2"/>
<circle cx="812.3" cy="49.8" r="1.15" fill="#E6301E"/>
<circle cx="836.9" cy="49.8" r="1.56" fill="#EDE9DD"/>
<circle cx="861.4" cy="49.8" r="1.96" fill="#0E0E10"/>
<circle cx="886.0" cy="49.8" r="2.36" fill="#EDE9DD"/>
<circle cx="910.6" cy="49.8" r="2.77" fill="#0E0E10"/>
<circle cx="935.1" cy="49.8" r="3.17" fill="#E6301E"/>
<circle cx="959.7" cy="49.8" r="3.57" fill="#0E0E10"/>
<circle cx="984.3" cy="49.8" r="3.98" fill="#EDE9DD"/>
<circle cx="1008.9" cy="49.8" r="4.38" fill="#0E0E10"/>
<circle cx="1033.4" cy="49.8" r="4.79" fill="#EDE9DD"/>
<circle cx="1058.0" cy="49.8" r="5.19" fill="#E6301E"/>
<circle cx="1082.6" cy="49.8" r="5.59" fill="#EDE9DD"/>
<circle cx="1107.1" cy="49.8" r="6.00" fill="#0E0E10"/>
<circle cx="1131.7" cy="49.8" r="6.40" fill="#EDE9DD"/>
<circle cx="812.3" cy="69.5" r="1.15" fill="#EDE9DD"/>
<circle cx="836.9" cy="69.5" r="1.56" fill="#0E0E10"/>
<circle cx="861.4" cy="69.5" r="1.96" fill="#EDE9DD"/>
<circle cx="886.0" cy="69.5" r="2.36" fill="#0E0E10"/>
<circle cx="910.6" cy="69.5" r="2.77" fill="#E6301E"/>
<circle cx="935.1" cy="69.5" r="3.17" fill="#0E0E10"/>
<circle cx="959.7" cy="69.5" r="3.57" fill="#EDE9DD"/>
<circle cx="984.3" cy="69.5" r="3.98" fill="#0E0E10"/>
<circle cx="1008.9" cy="69.5" r="4.38" fill="#EDE9DD"/>
<circle cx="1033.4" cy="69.5" r="4.79" fill="#E6301E"/>
<circle cx="1058.0" cy="69.5" r="5.19" fill="#EDE9DD"/>
<circle cx="1082.6" cy="69.5" r="5.59" fill="#0E0E10"/>
<circle cx="1107.1" cy="69.5" r="6.00" fill="#EDE9DD"/>
<circle cx="1131.7" cy="69.5" r="6.40" fill="#0E0E10"/>
<circle cx="812.3" cy="89.1" r="1.15" fill="#0E0E10"/>
<circle cx="836.9" cy="89.1" r="1.56" fill="#EDE9DD"/>
<circle cx="861.4" cy="89.1" r="1.96" fill="#0E0E10"/>
<circle cx="886.0" cy="89.1" r="2.36" fill="#E6301E"/>
<circle cx="910.6" cy="89.1" r="2.77" fill="#0E0E10"/>
<circle cx="935.1" cy="89.1" r="3.17" fill="#EDE9DD"/>
<circle cx="959.7" cy="89.1" r="3.57" fill="#0E0E10"/>
<circle cx="984.3" cy="89.1" r="3.98" fill="#EDE9DD"/>
<circle cx="1008.9" cy="89.1" r="4.38" fill="#E6301E"/>
<circle cx="1033.4" cy="89.1" r="4.79" fill="#EDE9DD"/>
<circle cx="1058.0" cy="89.1" r="5.19" fill="#0E0E10"/>
<circle cx="1082.6" cy="89.1" r="5.59" fill="#EDE9DD"/>
<circle cx="1107.1" cy="89.1" r="6.00" fill="#0E0E10"/>
<circle cx="1131.7" cy="89.1" r="6.40" fill="#E6301E"/>
<circle cx="812.3" cy="108.7" r="1.15" fill="#EDE9DD"/>
<circle cx="836.9" cy="108.7" r="1.56" fill="#0E0E10"/>
<circle cx="861.4" cy="108.7" r="1.96" fill="#E6301E"/>
<circle cx="886.0" cy="108.7" r="2.36" fill="#0E0E10"/>
<circle cx="910.6" cy="108.7" r="2.77" fill="#EDE9DD"/>
<circle cx="935.1" cy="108.7" r="3.17" fill="#0E0E10"/>
<circle cx="959.7" cy="108.7" r="3.57" fill="#EDE9DD"/>
<circle cx="984.3" cy="108.7" r="3.98" fill="#E6301E"/>
<circle cx="1008.9" cy="108.7" r="4.38" fill="#EDE9DD"/>
<circle cx="1033.4" cy="108.7" r="4.79" fill="#0E0E10"/>
<circle cx="1058.0" cy="108.7" r="5.19" fill="#EDE9DD"/>
<circle cx="1082.6" cy="108.7" r="5.59" fill="#0E0E10"/>
<circle cx="1107.1" cy="108.7" r="6.00" fill="#E6301E"/>
<circle cx="1131.7" cy="108.7" r="6.40" fill="#0E0E10"/>
<circle cx="812.3" cy="128.4" r="1.15" fill="#0E0E10"/>
<circle cx="836.9" cy="128.4" r="1.56" fill="#E6301E"/>
<circle cx="861.4" cy="128.4" r="1.96" fill="#0E0E10"/>
<circle cx="886.0" cy="128.4" r="2.36" fill="#EDE9DD"/>
<circle cx="910.6" cy="128.4" r="2.77" fill="#0E0E10"/>
<circle cx="935.1" cy="128.4" r="3.17" fill="#EDE9DD"/>
<circle cx="959.7" cy="128.4" r="3.57" fill="#E6301E"/>
<circle cx="984.3" cy="128.4" r="3.98" fill="#EDE9DD"/>
<circle cx="1008.9" cy="128.4" r="4.38" fill="#0E0E10"/>
<circle cx="1033.4" cy="128.4" r="4.79" fill="#EDE9DD"/>
<circle cx="1058.0" cy="128.4" r="5.19" fill="#0E0E10"/>
<circle cx="1082.6" cy="128.4" r="5.59" fill="#E6301E"/>
<circle cx="1107.1" cy="128.4" r="6.00" fill="#0E0E10"/>
<circle cx="1131.7" cy="128.4" r="6.40" fill="#EDE9DD"/>
<circle cx="812.3" cy="148.0" r="1.15" fill="#E6301E"/>
<circle cx="836.9" cy="148.0" r="1.56" fill="#0E0E10"/>
<circle cx="861.4" cy="148.0" r="1.96" fill="#EDE9DD"/>
<circle cx="886.0" cy="148.0" r="2.36" fill="#0E0E10"/>
<circle cx="910.6" cy="148.0" r="2.77" fill="#EDE9DD"/>
<circle cx="935.1" cy="148.0" r="3.17" fill="#E6301E"/>
<circle cx="959.7" cy="148.0" r="3.57" fill="#EDE9DD"/>
<circle cx="984.3" cy="148.0" r="3.98" fill="#0E0E10"/>
<circle cx="1008.9" cy="148.0" r="4.38" fill="#EDE9DD"/>
<circle cx="1033.4" cy="148.0" r="4.79" fill="#0E0E10"/>
<circle cx="1058.0" cy="148.0" r="5.19" fill="#E6301E"/>
<circle cx="1082.6" cy="148.0" r="5.59" fill="#0E0E10"/>
<circle cx="1107.1" cy="148.0" r="6.00" fill="#EDE9DD"/>
<circle cx="1131.7" cy="148.0" r="6.40" fill="#0E0E10"/>
<circle cx="812.3" cy="167.6" r="1.15" fill="#0E0E10"/>
<circle cx="836.9" cy="167.6" r="1.56" fill="#EDE9DD"/>
<circle cx="861.4" cy="167.6" r="1.96" fill="#0E0E10"/>
<circle cx="886.0" cy="167.6" r="2.36" fill="#EDE9DD"/>
<circle cx="910.6" cy="167.6" r="2.77" fill="#E6301E"/>
<circle cx="935.1" cy="167.6" r="3.17" fill="#EDE9DD"/>
<circle cx="959.7" cy="167.6" r="3.57" fill="#0E0E10"/>
<circle cx="984.3" cy="167.6" r="3.98" fill="#EDE9DD"/>
<circle cx="1008.9" cy="167.6" r="4.38" fill="#0E0E10"/>
<circle cx="1033.4" cy="167.6" r="4.79" fill="#E6301E"/>
<circle cx="1058.0" cy="167.6" r="5.19" fill="#0E0E10"/>
<circle cx="1082.6" cy="167.6" r="5.59" fill="#EDE9DD"/>
<circle cx="1107.1" cy="167.6" r="6.00" fill="#0E0E10"/>
<circle cx="1131.7" cy="167.6" r="6.40" fill="#EDE9DD"/>
<circle cx="812.3" cy="187.3" r="1.15" fill="#EDE9DD"/>
<circle cx="836.9" cy="187.3" r="1.56" fill="#0E0E10"/>
<circle cx="861.4" cy="187.3" r="1.96" fill="#EDE9DD"/>
<circle cx="886.0" cy="187.3" r="2.36" fill="#E6301E"/>
<circle cx="910.6" cy="187.3" r="2.77" fill="#EDE9DD"/>
<circle cx="935.1" cy="187.3" r="3.17" fill="#0E0E10"/>
<circle cx="959.7" cy="187.3" r="3.57" fill="#EDE9DD"/>
<circle cx="984.3" cy="187.3" r="3.98" fill="#0E0E10"/>
<circle cx="1008.9" cy="187.3" r="4.38" fill="#E6301E"/>
<circle cx="1033.4" cy="187.3" r="4.79" fill="#0E0E10"/>
<circle cx="1058.0" cy="187.3" r="5.19" fill="#EDE9DD"/>
<circle cx="1082.6" cy="187.3" r="5.59" fill="#0E0E10"/>
<circle cx="1107.1" cy="187.3" r="6.00" fill="#EDE9DD"/>
<circle cx="1131.7" cy="187.3" r="6.40" fill="#E6301E"/>
<circle cx="812.3" cy="206.9" r="1.15" fill="#0E0E10"/>
<circle cx="836.9" cy="206.9" r="1.56" fill="#EDE9DD"/>
<circle cx="861.4" cy="206.9" r="1.96" fill="#E6301E"/>
<circle cx="886.0" cy="206.9" r="2.36" fill="#EDE9DD"/>
<circle cx="910.6" cy="206.9" r="2.77" fill="#0E0E10"/>
<circle cx="935.1" cy="206.9" r="3.17" fill="#EDE9DD"/>
<circle cx="959.7" cy="206.9" r="3.57" fill="#0E0E10"/>
<circle cx="984.3" cy="206.9" r="3.98" fill="#E6301E"/>
<circle cx="1008.9" cy="206.9" r="4.38" fill="#0E0E10"/>
<circle cx="1033.4" cy="206.9" r="4.79" fill="#EDE9DD"/>
<circle cx="1058.0" cy="206.9" r="5.19" fill="#0E0E10"/>
<circle cx="1082.6" cy="206.9" r="5.59" fill="#EDE9DD"/>
<circle cx="1107.1" cy="206.9" r="6.00" fill="#E6301E"/>
<circle cx="1131.7" cy="206.9" r="6.40" fill="#EDE9DD"/>
<circle cx="812.3" cy="226.5" r="1.15" fill="#EDE9DD"/>
<circle cx="836.9" cy="226.5" r="1.56" fill="#E6301E"/>
<circle cx="861.4" cy="226.5" r="1.96" fill="#EDE9DD"/>
<circle cx="886.0" cy="226.5" r="2.36" fill="#0E0E10"/>
<circle cx="910.6" cy="226.5" r="2.77" fill="#EDE9DD"/>
<circle cx="935.1" cy="226.5" r="3.17" fill="#0E0E10"/>
<circle cx="959.7" cy="226.5" r="3.57" fill="#E6301E"/>
<circle cx="984.3" cy="226.5" r="3.98" fill="#0E0E10"/>
<circle cx="1008.9" cy="226.5" r="4.38" fill="#EDE9DD"/>
<circle cx="1033.4" cy="226.5" r="4.79" fill="#0E0E10"/>
<circle cx="1058.0" cy="226.5" r="5.19" fill="#EDE9DD"/>
<circle cx="1082.6" cy="226.5" r="5.59" fill="#E6301E"/>
<circle cx="1107.1" cy="226.5" r="6.00" fill="#EDE9DD"/>
<circle cx="1131.7" cy="226.5" r="6.40" fill="#0E0E10"/>
<circle cx="812.3" cy="246.2" r="1.15" fill="#E6301E"/>
<circle cx="836.9" cy="246.2" r="1.56" fill="#EDE9DD"/>
<circle cx="861.4" cy="246.2" r="1.96" fill="#0E0E10"/>
<circle cx="886.0" cy="246.2" r="2.36" fill="#EDE9DD"/>
<circle cx="910.6" cy="246.2" r="2.77" fill="#0E0E10"/>
<circle cx="935.1" cy="246.2" r="3.17" fill="#E6301E"/>
<circle cx="959.7" cy="246.2" r="3.57" fill="#0E0E10"/>
<circle cx="984.3" cy="246.2" r="3.98" fill="#EDE9DD"/>
<circle cx="1008.9" cy="246.2" r="4.38" fill="#0E0E10"/>
<circle cx="1033.4" cy="246.2" r="4.79" fill="#EDE9DD"/>
<circle cx="1058.0" cy="246.2" r="5.19" fill="#E6301E"/>
<circle cx="1082.6" cy="246.2" r="5.59" fill="#EDE9DD"/>
<circle cx="1107.1" cy="246.2" r="6.00" fill="#0E0E10"/>
<circle cx="1131.7" cy="246.2" r="6.40" fill="#EDE9DD"/>
<line x1="800" y1="40" x2="816" y2="40" stroke="#0E0E10" stroke-width="3" />
<line x1="800" y1="40" x2="800" y2="56" stroke="#0E0E10" stroke-width="3" />
<line x1="1144" y1="40" x2="1128" y2="40" stroke="#0E0E10" stroke-width="3" />
<line x1="1144" y1="40" x2="1144" y2="56" stroke="#0E0E10" stroke-width="3" />
<line x1="800" y1="256" x2="816" y2="256" stroke="#0E0E10" stroke-width="3" />
<line x1="800" y1="256" x2="800" y2="240" stroke="#0E0E10" stroke-width="3" />
<line x1="1144" y1="256" x2="1128" y2="256" stroke="#0E0E10" stroke-width="3" />
<line x1="1144" y1="256" x2="1144" y2="240" stroke="#0E0E10" stroke-width="3" />
<line x1="56" y1="270" x2="1144" y2="270" stroke="#0E0E10" stroke-width="2" />
<text x="56" y="292" font-family="Helvetica Neue, Helvetica, Arial, sans-serif" font-size="13" font-weight="700" fill="#0E0E10" text-anchor="start">CLOUD-NATIVE + FULL-STACK ENGINEER — K8S / AWS / AI</text>
<text x="1144" y="292" font-family="Consolas, Menlo, Monaco, monospace" font-size="13" font-weight="400" fill="#0E0E10" text-anchor="end">GITHUB.COM/NITINVIKAAS24</text>
<line x1="56" y1="310" x2="1144" y2="310" stroke="#B9B4A6" stroke-width="2" />
<line x1="56" y1="310" x2="56" y2="317.2" stroke="#B9B4A6" stroke-width="2" />
<line x1="80" y1="310" x2="80" y2="314" stroke="#B9B4A6" stroke-width="1" />
<line x1="104" y1="310" x2="104" y2="314" stroke="#B9B4A6" stroke-width="1" />
<line x1="128" y1="310" x2="128" y2="314" stroke="#B9B4A6" stroke-width="1" />
<line x1="152" y1="310" x2="152" y2="314" stroke="#B9B4A6" stroke-width="1" />
<line x1="176" y1="310" x2="176" y2="317.2" stroke="#B9B4A6" stroke-width="2" />
<line x1="200" y1="310" x2="200" y2="314" stroke="#B9B4A6" stroke-width="1" />
<line x1="224" y1="310" x2="224" y2="314" stroke="#B9B4A6" stroke-width="1" />
<line x1="248" y1="310" x2="248" y2="314" stroke="#B9B4A6" stroke-width="1" />
<line x1="272" y1="310" x2="272" y2="314" stroke="#B9B4A6" stroke-width="1" />
<line x1="296" y1="310" x2="296" y2="317.2" stroke="#B9B4A6" stroke-width="2" />
<line x1="320" y1="310" x2="320" y2="314" stroke="#B9B4A6" stroke-width="1" />
<line x1="344" y1="310" x2="344" y2="314" stroke="#B9B4A6" stroke-width="1" />
<line x1="368" y1="310" x2="368" y2="314" stroke="#B9B4A6" stroke-width="1" />
<line x1="392" y1="310" x2="392" y2="314" stroke="#B9B4A6" stroke-width="1" />
<line x1="416" y1="310" x2="416" y2="317.2" stroke="#B9B4A6" stroke-width="2" />
<line x1="440" y1="310" x2="440" y2="314" stroke="#B9B4A6" stroke-width="1" />
<line x1="464" y1="310" x2="464" y2="314" stroke="#B9B4A6" stroke-width="1" />
<line x1="488" y1="310" x2="488" y2="314" stroke="#B9B4A6" stroke-width="1" />
<line x1="512" y1="310" x2="512" y2="314" stroke="#B9B4A6" stroke-width="1" />
<line x1="536" y1="310" x2="536" y2="317.2" stroke="#B9B4A6" stroke-width="2" />
<line x1="560" y1="310" x2="560" y2="314" stroke="#B9B4A6" stroke-width="1" />
<line x1="584" y1="310" x2="584" y2="314" stroke="#B9B4A6" stroke-width="1" />
<line x1="608" y1="310" x2="608" y2="314" stroke="#B9B4A6" stroke-width="1" />
<line x1="632" y1="310" x2="632" y2="314" stroke="#B9B4A6" stroke-width="1" />
<line x1="656" y1="310" x2="656" y2="317.2" stroke="#B9B4A6" stroke-width="2" />
<line x1="680" y1="310" x2="680" y2="314" stroke="#B9B4A6" stroke-width="1" />
<line x1="704" y1="310" x2="704" y2="314" stroke="#B9B4A6" stroke-width="1" />
<line x1="728" y1="310" x2="728" y2="314" stroke="#B9B4A6" stroke-width="1" />
<line x1="752" y1="310" x2="752" y2="314" stroke="#B9B4A6" stroke-width="1" />
<line x1="776" y1="310" x2="776" y2="317.2" stroke="#B9B4A6" stroke-width="2" />
<line x1="800" y1="310" x2="800" y2="314" stroke="#B9B4A6" stroke-width="1" />
<line x1="824" y1="310" x2="824" y2="314" stroke="#B9B4A6" stroke-width="1" />
<line x1="848" y1="310" x2="848" y2="314" stroke="#B9B4A6" stroke-width="1" />
<line x1="872" y1="310" x2="872" y2="314" stroke="#B9B4A6" stroke-width="1" />
<line x1="896" y1="310" x2="896" y2="317.2" stroke="#B9B4A6" stroke-width="2" />
<line x1="920" y1="310" x2="920" y2="314" stroke="#B9B4A6" stroke-width="1" />
<line x1="944" y1="310" x2="944" y2="314" stroke="#B9B4A6" stroke-width="1" />
<line x1="968" y1="310" x2="968" y2="314" stroke="#B9B4A6" stroke-width="1" />
<line x1="992" y1="310" x2="992" y2="314" stroke="#B9B4A6" stroke-width="1" />
<line x1="1016" y1="310" x2="1016" y2="317.2" stroke="#B9B4A6" stroke-width="2" />
<line x1="1040" y1="310" x2="1040" y2="314" stroke="#B9B4A6" stroke-width="1" />
<line x1="1064" y1="310" x2="1064" y2="314" stroke="#B9B4A6" stroke-width="1" />
<line x1="1088" y1="310" x2="1088" y2="314" stroke="#B9B4A6" stroke-width="1" />
<line x1="1112" y1="310" x2="1112" y2="314" stroke="#B9B4A6" stroke-width="1" />
<line x1="1136" y1="310" x2="1136" y2="317.2" stroke="#B9B4A6" stroke-width="2" /></svg>