<svg xmlns="http://www.w3.org/2000/svg" viewBox="0 0 258 67" width="258" height="67" role="img"><rect x="0" y="0" width="258" height="67" fill="#0E0E10" />
<rect x="0" y="0" width="68" height="67" fill="#E6301E" />
<g id="idx">
<rect x="14" y="19.5" width="4" height="4" fill="#0E0E10"/>
<rect x="18" y="19.5" width="4" height="4" fill="#0E0E10"/>
<rect x="22" y="19.5" width="4" height="4" fill="#0E0E10"/>
<rect x="10" y="23.5" width="4" height="4" fill="#0E0E10"/>
<rect x="22" y="23.5" width="4" height="4" fill="#0E0E10"/>
<rect x="26" y="23.5" width="4" height="4" fill="#0E0E10"/>
<rect x="10" y="27.5" width="4" height="4" fill="#0E0E10"/>
<rect x="18" y="27.5" width="4" height="4" fill="#0E0E10"/>
<rect x="26" y="27.5" width="4" height="4" fill="#0E0E10"/>
<rect x="10" y="31.5" width="4" height="4" fill="#0E0E10"/>
<rect x="18" y="31.5" width="4" height="4" fill="#0E0E10"/>
<rect x="26" y="31.5" width="4" height="4" fill="#0E0E10"/>
<rect x="10" y="35.5" width="4" height="4" fill="#0E0E10"/>
<rect x="14" y="35.5" width="4" height="4" fill="#0E0E10"/>
<rect x="26" y="35.5" width="4" height="4" fill="#0E0E10"/>
<rect x="10" y="39.5" width="4" height="4" fill="#0E0E10"/>
<rect x="26" y="39.5" width="4" height="4" fill="#0E0E10"/>
<rect x="14" y="43.5" width="4" height="4" fill="#0E0E10"/>
<rect x="18" y="43.5" width="4" height="4" fill="#0E0E10"/>
<rect x="22" y="43.5" width="4" height="4" fill="#0E0E10"/>
<rect x="42" y="19.5" width="4" height="4" fill="#0E0E10"/>
<rect x="46" y="19.5" width="4" height="4" fill="#0E0E10"/>
<rect x="38" y="23.5" width="4" height="4" fill="#0E0E10"/>
<rect x="34" y="27.5" width="4" height="4" fill="#0E0E10"/>
<rect x="34" y="31.5" width="4" height="4" fill="#0E0E10"/>
<rect x="38" y="31.5" width="4" height="4" fill="#0E0E10"/>
<rect x="42" y="31.5" width="4" height="4" fill="#0E0E10"/>
<rect x="46" y="31.5" width="4" height="4" fill="#0E0E10"/>
<rect x="34" y="35.5" width="4" height="4" fill="#0E0E10"/>
<rect x="50" y="35.5" width="4" height="4" fill="#0E0E10"/>
<rect x="34" y="39.5" width="4" height="4" fill="#0E0E10"/>
<rect x="50" y="39.5" width="4" height="4" fill="#0E0E10"/>
<rect x="38" y="43.5" width="4" height="4" fill="#0E0E10"/>
<rect x="42" y="43.5" width="4" height="4" fill="#0E0E10"/>
<rect x="46" y="43.5" width="4" height="4" fill="#0E0E10"/>
</g>
<g id="lbl">
<rect x="93" y="16.0" width="5" height="5" fill="#F4F1E9"/>
<rect x="98" y="16.0" width="5" height="5" fill="#F4F1E9"/>
<rect x="103" y="16.0" width="5" height="5" fill="#F4F1E9"/>
<rect x="108" y="16.0" width="5" height="5" fill="#F4F1E9"/>
<rect x="88" y="21.0" width="5" height="5" fill="#F4F1E9"/>
<rect x="88" y="26.0" width="5" height="5" fill="#F4F1E9"/>
<rect x="93" y="31.0" width="5" height="5" fill="#F4F1E9"/>
<rect x="98" y="31.0" width="5" height="5" fill="#F4F1E9"/>
<rect x="103" y="31.0" width="5" height="5" fill="#F4F1E9"/>
<rect x="108" y="36.0" width="5" height="5" fill="#F4F1E9"/>
<rect x="108" y="41.0" width="5" height="5" fill="#F4F1E9"/>
<rect x="88" y="46.0" width="5" height="5" fill="#F4F1E9"/>
<rect x="93" y="46.0" width="5" height="5" fill="#F4F1E9"/>
<rect x="98" y="46.0" width="5" height="5" fill="#F4F1E9"/>
<rect x="103" y="46.0" width="5" height="5" fill="#F4F1E9"/>
<rect x="118" y="16.0" width="5" height="5" fill="#F4F1E9"/>
<rect x="123" y="16.0" width="5" height="5" fill="#F4F1E9"/>
<rect x="128" y="16.0" width="5" height="5" fill="#F4F1E9"/>
<rect x="133" y="16.0" width="5" height="5" fill="#F4F1E9"/>
<rect x="138" y="16.0" width="5" height="5" fill="#F4F1E9"/>
<rect x="128" y="21.0" width="5" height="5" fill="#F4F1E9"/>
<rect x="128" y="26.0" width="5" height="5" fill="#F4F1E9"/>
<rect x="128" y="31.0" width="5" height="5" fill="#F4F1E9"/>
<rect x="128" y="36.0" width="5" height="5" fill="#F4F1E9"/>
<rect x="128" y="41.0" width="5" height="5" fill="#F4F1E9"/>
<rect x="128" y="46.0" width="5" height="5" fill="#F4F1E9"/>
<rect x="153" y="16.0" width="5" height="5" fill="#F4F1E9"/>
<rect x="158" y="16.0" width="5" height="5" fill="#F4F1E9"/>
<rect x="163" y="16.0" width="5" height="5" fill="#F4F1E9"/>
<rect x="148" y="21.0" width="5" height="5" fill="#F4F1E9"/>
<rect x="168" y="21.0" width="5" height="5" fill="#F4F1E9"/>
<rect x="148" y="26.0" width="5" height="5" fill="#F4F1E9"/>
<rect x="168" y="26.0" width="5" height="5" fill="#F4F1E9"/>
<rect x="148" y="31.0" width="5" height="5" fill="#F4F1E9"/>
<rect x="153" y="31.0" width="5" height="5" fill="#F4F1E9"/>
<rect x="158" y="31.0" width="5" height="5" fill="#F4F1E9"/>
<rect x="163" y="31.0" width="5" height="5" fill="#F4F1E9"/>
<rect x="168" y="31.0" width="5" height="5" fill="#F4F1E9"/>
<rect x="148" y="36.0" width="5" height="5" fill="#F4F1E9"/>
<rect x="168" y="36.0" width="5" height="5" fill="#F4F1E9"/>
<rect x="148" y="41.0" width="5" height="5" fill="#F4F1E9"/>
<rect x="168" y="41.0" width="5" height="5" fill="#F4F1E9"/>
<rect x="148" y="46.0" width="5" height="5" fill="#F4F1E9"/>
<rect x="168" y="46.0" width="5" height="5" fill="#F4F1E9"/>
<rect x="178" y="16.0" width="5" height="5" fill="#F4F1E9"/>
<rect x="183" y="16.0" width="5" height="5" fill="#F4F1E9"/>
<rect x="188" y="16.0" width="5" height="5" fill="#F4F1E9"/>
<rect x="193" y="16.0" width="5" height="5" fill="#F4F1E9"/>
<rect x="198" y="16.0" width="5" height="5" fill="#F4F1E9"/>
<rect x="188" y="21.0" width="5" height="5" fill="#F4F1E9"/>
<rect x="188" y="26.0" width="5" height="5" fill="#F4F1E9"/>
<rect x="188" y="31.0" width="5" height="5" fill="#F4F1E9"/>
<rect x="188" y="36.0" width="5" height="5" fill="#F4F1E9"/>
<rect x="188" y="41.0" width="5" height="5" fill="#F4F1E9"/>
<rect x="188" y="46.0" width="5" height="5" fill="#F4F1E9"/>
<rect x="213" y="16.0" width="5" height="5" fill="#F4F1E9"/>
<rect x="218" y="16.0" width="5" height="5" fill="#F4F1E9"/>
<rect x="223" y="16.0" width="5" height="5" fill="#F4F1E9"/>
<rect x="228" y="16.0" width="5" height="5" fill="#F4F1E9"/>
<rect x="208" y="21.0" width="5" height="5" fill="#F4F1E9"/>
<rect x="208" y="26.0" width="5" height="5" fill="#F4F1E9"/>
<rect x="213" y="31.0" width="5" height="5" fill="#F4F1E9"/>
<rect x="218" y="31.0" width="5" height="5" fill="#F4F1E9"/>
<rect x="223" y="31.0" width="5" height="5" fill="#F4F1E9"/>
<rect x="228" y="36.0" width="5" height="5" fill="#F4F1E9"/>
<rect x="228" y="41.0" width="5" height="5" fill="#F4F1E9"/>
<rect x="208" y="46.0" width="5" height="5" fill="#F4F1E9"/>
<rect x="213" y="46.0" width="5" height="5" fill="#F4F1E9"/>
<rect x="218" y="46.0" width="5" height="5" fill="#F4F1E9"/>
<rect x="223" y="46.0" width="5" height="5" fill="#F4F1E9"/>
</g></svg>